<?xml version="1.0" standalone="no"?>
<!DOCTYPE svg PUBLIC "-//W3C//DTD SVG 20010904//EN"
 "http://www.w3.org/TR/2001/REC-SVG-20010904/DTD/svg10.dtd">
<svg version="1.0" xmlns="http://www.w3.org/2000/svg"
 width="1089.000000pt" height="1089.000000pt" viewBox="0 0 1089.000000 1089.000000"
 preserveAspectRatio="xMidYMid meet">
<metadata>
Created by potrace 1.14, written by Peter Selinger 2001-2017
</metadata>
<g transform="translate(0.000000,1089.000000) scale(0.100000,-0.100000)"
fill="#000000" stroke="none">
<path d="M5200 10844 c-380 -26 -561 -48 -840 -104 -1169 -235 -2226 -845
-3014 -1740 -712 -808 -1158 -1790 -1300 -2860 -31 -229 -40 -391 -40 -690 0
-299 9 -461 40 -690 142 -1070 588 -2052 1300 -2860 788 -895 1845 -1505 3014
-1740 383 -77 668 -104 1085 -104 417 0 702 27 1085 104 752 151 1455 455
2078 897 1062 754 1822 1868 2126 3114 266 1091 188 2226 -224 3260 -339 851
-912 1626 -1631 2206 -158 127 -368 278 -375 270 -6 -6 -14 -769 -34 -3233
-11 -1356 -15 -1475 -59 -1739 -32 -194 -98 -455 -150 -587 l-10 -27 51 6 51
6 -7 -54 c-14 -101 -75 -183 -175 -234 -35 -17 -57 -38 -80 -75 -17 -28 -31
-52 -31 -55 0 -3 33 -5 73 -5 80 0 151 -16 213 -48 47 -24 144 -109 144 -125
0 -7 -16 -23 -35 -36 -79 -53 -147 -168 -167 -282 -28 -158 56 -341 198 -434
33 -21 61 -40 63 -41 11 -9 -37 -173 -74 -250 -71 -147 -164 -234 -293 -274
-82 -25 -119 -25 -190 1 -156 58 -167 61 -222 56 -30 -3 -102 -19 -159 -36
-178 -53 -247 -40 -363 67 -73 68 -146 174 -204 297 l-44 92 -73 -38 c-366
-191 -886 -337 -1357 -379 -237 -22 -690 33 -1015 122 -398 109 -760 289
-1045 520 -550 446 -922 1138 -1040 1933 -80 544 -16 1042 197 1544 407 957
1242 1668 2184 1860 261 54 612 71 864 42 397 -45 829 -178 1196 -367 50 -26
91 -45 93 -43 2 2 6 572 10 1266 l7 1262 -68 20 c-287 84 -641 151 -993 187
-138 14 -644 26 -760 18z"/>
<path d="M5105 7495 c-213 -734 -345 -1170 -361 -1185 -11 -10 -280 -115 -599
-235 -319 -119 -585 -220 -592 -224 -6 -3 215 -161 512 -364 288 -197 529
-365 536 -373 8 -10 21 -203 41 -652 16 -350 31 -638 33 -640 2 -3 80 54 172
125 92 71 318 245 501 386 183 141 343 259 355 262 12 3 286 -67 632 -163 336
-93 611 -166 613 -162 1 4 -92 272 -208 597 -115 324 -210 600 -210 614 0 15
136 229 350 554 268 407 346 531 333 534 -10 2 -293 -5 -630 -14 -336 -10
-623 -15 -636 -11 -16 4 -146 160 -408 488 -211 265 -391 491 -401 502 -16 20
-17 19 -33 -39z"/>
</g>
</svg>
